name baseline.mot
datacolumns 19
datarows 15
range 6.37164500000000 6.39497500000000
endheader
time	ground_force1_vx	ground_force1_vy	ground_force1_vz	ground_force1_px	ground_force1_py	ground_force1_pz	ground_force2_vx	ground_force2_vy	ground_force2_vz	ground_force2_px	ground_force2_py	ground_force2_pz	ground_torque1_x	ground_torque1_y	ground_torque1_z	ground_torque2_x	ground_torque2_y	ground_torque2_z	
6.37164500000000	10.33650500000000	703.24157100000002	55.38753800000000	0.08852000000000	0.00000000000000	0.15495100000000	0.00000000000000	0.00000000000000	0.00000000000000	0.00000000000000	0.00000000000000	0.00000000000000	0.00000000000000	6.68710000000000	0.00000000000000	0.00000000000000	0.00000000000000	0.00000000000000	
6.37330900000000	9.87597600000000	704.51837999999998	55.39969200000000	0.08744500000000	0.00000000000000	0.15489200000000	0.00000000000000	0.00000000000000	0.00000000000000	0.00000000000000	0.00000000000000	0.00000000000000	0.00000000000000	6.75454900000000	0.00000000000000	0.00000000000000	0.00000000000000	0.00000000000000	
6.37497900000000	9.41095700000000	705.80440699999997	55.41562700000000	0.08637300000000	0.00000000000000	0.15483300000000	0.00000000000000	0.00000000000000	0.00000000000000	0.00000000000000	0.00000000000000	0.00000000000000	0.00000000000000	6.82496300000000	0.00000000000000	0.00000000000000	0.00000000000000	0.00000000000000	
6.37666800000000	8.94145200000000	707.09823900000004	55.43511800000000	0.08530400000000	0.00000000000000	0.15477500000000	0.00000000000000	0.00000000000000	0.00000000000000	0.00000000000000	0.00000000000000	0.00000000000000	0.00000000000000	6.89829000000000	0.00000000000000	0.00000000000000	0.00000000000000	0.00000000000000	
6.37831300000000	8.46746500000000	708.39852499999995	55.45794700000000	0.08423800000000	0.00000000000000	0.15471600000000	0.00000000000000	0.00000000000000	0.00000000000000	0.00000000000000	0.00000000000000	0.00000000000000	0.00000000000000	6.97447200000000	0.00000000000000	0.00000000000000	0.00000000000000	0.00000000000000	
6.38000100000000	7.98900000000000	709.70398000000000	55.48391400000000	0.08317600000000	0.00000000000000	0.15465700000000	0.00000000000000	0.00000000000000	0.00000000000000	0.00000000000000	0.00000000000000	0.00000000000000	0.00000000000000	7.05345000000000	0.00000000000000	0.00000000000000	0.00000000000000	0.00000000000000	
6.38164000000000	7.50606000000000	711.01338199999998	55.51282400000000	0.08211800000000	0.00000000000000	0.15459900000000	0.00000000000000	0.00000000000000	0.00000000000000	0.00000000000000	0.00000000000000	0.00000000000000	0.00000000000000	7.13516500000000	0.00000000000000	0.00000000000000	0.00000000000000	0.00000000000000	
6.38331300000000	7.01864500000000	712.32556999999997	55.54450000000000	0.08106500000000	0.00000000000000	0.15454000000000	0.00000000000000	0.00000000000000	0.00000000000000	0.00000000000000	0.00000000000000	0.00000000000000	0.00000000000000	7.21955300000000	0.00000000000000	0.00000000000000	0.00000000000000	0.00000000000000	
6.38499000000000	6.52675400000000	713.63944900000001	55.57877500000000	0.08001700000000	0.00000000000000	0.15448100000000	0.00000000000000	0.00000000000000	0.00000000000000	0.00000000000000	0.00000000000000	0.00000000000000	0.00000000000000	7.30655100000000	0.00000000000000	0.00000000000000	0.00000000000000	0.00000000000000	
6.38664300000000	6.03038200000000	714.95398299999999	55.61549300000000	0.07897400000000	0.00000000000000	0.15442200000000	0.00000000000000	0.00000000000000	0.00000000000000	0.00000000000000	0.00000000000000	0.00000000000000	0.00000000000000	7.39609300000000	0.00000000000000	0.00000000000000	0.00000000000000	0.00000000000000	
6.38830500000000	5.52952500000000	716.26819599999999	55.65451200000000	0.07793500000000	0.00000000000000	0.15436400000000	0.00000000000000	0.00000000000000	0.00000000000000	0.00000000000000	0.00000000000000	0.00000000000000	0.00000000000000	7.48811100000000	0.00000000000000	0.00000000000000	0.00000000000000	0.00000000000000	
6.38999000000000	5.02417000000000	717.58117200000004	55.69570400000000	0.07690200000000	0.00000000000000	0.15430500000000	0.00000000000000	0.00000000000000	0.00000000000000	0.00000000000000	0.00000000000000	0.00000000000000	0.00000000000000	7.58253700000000	0.00000000000000	0.00000000000000	0.00000000000000	0.00000000000000	
6.39164000000000	4.51430700000000	718.89205200000004	55.73895200000000	0.07587400000000	0.00000000000000	0.15424600000000	0.00000000000000	0.00000000000000	0.00000000000000	0.00000000000000	0.00000000000000	0.00000000000000	0.00000000000000	7.67930300000000	0.00000000000000	0.00000000000000	0.00000000000000	0.00000000000000	
6.39331300000000	3.99991900000000	720.20003099999997	55.78415100000000	0.07485100000000	0.00000000000000	0.15418700000000	0.00000000000000	0.00000000000000	0.00000000000000	0.00000000000000	0.00000000000000	0.00000000000000	0.00000000000000	7.77833600000000	0.00000000000000	0.00000000000000	0.00000000000000	0.00000000000000	
6.39497500000000	3.48098800000000	721.50435900000002	55.83121000000000	0.07383300000000	0.00000000000000	0.15412800000000	0.00000000000000	0.00000000000000	0.00000000000000	0.00000000000000	0.00000000000000	0.00000000000000	0.00000000000000	7.87956800000000	0.00000000000000	0.00000000000000	0.00000000000000	0.00000000000000	
